<mxfile host="Electron" agent="Mozilla/5.0 (Windows NT 10.0; Win64; x64) AppleWebKit/537.36 (KHTML, like Gecko) draw.io/24.7.17 Chrome/128.0.6613.36 Electron/32.0.1 Safari/537.36" version="24.7.17">
  <diagram name="Страница — 1" id="qIF0nzXHLvo87AtFQzwk">
    <mxGraphModel dx="1221" dy="717" grid="1" gridSize="10" guides="1" tooltips="1" connect="1" arrows="1" fold="1" page="1" pageScale="1" pageWidth="1169" pageHeight="1654" math="0" shadow="0">
      <root>
        <mxCell id="0" />
        <mxCell id="1" parent="0" />
        <mxCell id="y8T9JFSACITl1oGki1xc-3" style="edgeStyle=orthogonalEdgeStyle;rounded=0;orthogonalLoop=1;jettySize=auto;html=1;entryX=0.5;entryY=0;entryDx=0;entryDy=0;" edge="1" parent="1" source="y8T9JFSACITl1oGki1xc-1" target="y8T9JFSACITl1oGki1xc-2">
          <mxGeometry relative="1" as="geometry" />
        </mxCell>
        <mxCell id="y8T9JFSACITl1oGki1xc-1" value="&lt;font color=&quot;#ff3333&quot;&gt;Start&lt;/font&gt;" style="ellipse;whiteSpace=wrap;html=1;" vertex="1" parent="1">
          <mxGeometry x="525" y="20" width="120" height="80" as="geometry" />
        </mxCell>
        <mxCell id="y8T9JFSACITl1oGki1xc-7" style="edgeStyle=orthogonalEdgeStyle;rounded=0;orthogonalLoop=1;jettySize=auto;html=1;" edge="1" parent="1" source="y8T9JFSACITl1oGki1xc-2" target="y8T9JFSACITl1oGki1xc-4">
          <mxGeometry relative="1" as="geometry" />
        </mxCell>
        <mxCell id="y8T9JFSACITl1oGki1xc-2" value="unsigned int l,w,u,d" style="rounded=0;whiteSpace=wrap;html=1;" vertex="1" parent="1">
          <mxGeometry x="525" y="130" width="120" height="60" as="geometry" />
        </mxCell>
        <mxCell id="y8T9JFSACITl1oGki1xc-9" style="edgeStyle=orthogonalEdgeStyle;rounded=0;orthogonalLoop=1;jettySize=auto;html=1;entryX=0.5;entryY=0;entryDx=0;entryDy=0;" edge="1" parent="1" source="y8T9JFSACITl1oGki1xc-4" target="y8T9JFSACITl1oGki1xc-8">
          <mxGeometry relative="1" as="geometry" />
        </mxCell>
        <mxCell id="y8T9JFSACITl1oGki1xc-4" value="input l,w,u,d" style="shape=parallelogram;perimeter=parallelogramPerimeter;whiteSpace=wrap;html=1;fixedSize=1;" vertex="1" parent="1">
          <mxGeometry x="523" y="220" width="122.5" height="50" as="geometry" />
        </mxCell>
        <mxCell id="y8T9JFSACITl1oGki1xc-12" style="edgeStyle=orthogonalEdgeStyle;rounded=0;orthogonalLoop=1;jettySize=auto;html=1;entryX=1;entryY=0.5;entryDx=0;entryDy=0;" edge="1" parent="1" source="y8T9JFSACITl1oGki1xc-8" target="y8T9JFSACITl1oGki1xc-11">
          <mxGeometry relative="1" as="geometry" />
        </mxCell>
        <mxCell id="y8T9JFSACITl1oGki1xc-13" value="true" style="edgeLabel;html=1;align=center;verticalAlign=middle;resizable=0;points=[];" vertex="1" connectable="0" parent="y8T9JFSACITl1oGki1xc-12">
          <mxGeometry x="-0.0877" y="-1" relative="1" as="geometry">
            <mxPoint as="offset" />
          </mxGeometry>
        </mxCell>
        <mxCell id="y8T9JFSACITl1oGki1xc-15" style="edgeStyle=orthogonalEdgeStyle;rounded=0;orthogonalLoop=1;jettySize=auto;html=1;entryX=0.5;entryY=0;entryDx=0;entryDy=0;" edge="1" parent="1" source="y8T9JFSACITl1oGki1xc-8" target="y8T9JFSACITl1oGki1xc-14">
          <mxGeometry relative="1" as="geometry" />
        </mxCell>
        <mxCell id="y8T9JFSACITl1oGki1xc-17" value="false" style="edgeLabel;html=1;align=center;verticalAlign=middle;resizable=0;points=[];" vertex="1" connectable="0" parent="y8T9JFSACITl1oGki1xc-15">
          <mxGeometry x="-0.1155" y="2" relative="1" as="geometry">
            <mxPoint as="offset" />
          </mxGeometry>
        </mxCell>
        <mxCell id="y8T9JFSACITl1oGki1xc-8" value="l &amp;gt; w?" style="rhombus;whiteSpace=wrap;html=1;" vertex="1" parent="1">
          <mxGeometry x="526.25" y="292.5" width="116" height="70" as="geometry" />
        </mxCell>
        <mxCell id="y8T9JFSACITl1oGki1xc-25" style="edgeStyle=orthogonalEdgeStyle;rounded=0;orthogonalLoop=1;jettySize=auto;html=1;entryX=0;entryY=0.5;entryDx=0;entryDy=0;" edge="1" parent="1" source="y8T9JFSACITl1oGki1xc-11" target="y8T9JFSACITl1oGki1xc-24">
          <mxGeometry relative="1" as="geometry">
            <Array as="points">
              <mxPoint x="320" y="327.5" />
              <mxPoint x="320" y="538" />
            </Array>
          </mxGeometry>
        </mxCell>
        <mxCell id="y8T9JFSACITl1oGki1xc-11" value="Forget about the cocktails, man!" style="shape=parallelogram;perimeter=parallelogramPerimeter;whiteSpace=wrap;html=1;fixedSize=1;" vertex="1" parent="1">
          <mxGeometry x="340" y="300" width="140" height="55" as="geometry" />
        </mxCell>
        <mxCell id="y8T9JFSACITl1oGki1xc-19" style="edgeStyle=orthogonalEdgeStyle;rounded=0;orthogonalLoop=1;jettySize=auto;html=1;" edge="1" parent="1" source="y8T9JFSACITl1oGki1xc-14" target="y8T9JFSACITl1oGki1xc-18">
          <mxGeometry relative="1" as="geometry" />
        </mxCell>
        <mxCell id="y8T9JFSACITl1oGki1xc-20" value="true" style="edgeLabel;html=1;align=center;verticalAlign=middle;resizable=0;points=[];" vertex="1" connectable="0" parent="y8T9JFSACITl1oGki1xc-19">
          <mxGeometry x="-0.1378" relative="1" as="geometry">
            <mxPoint as="offset" />
          </mxGeometry>
        </mxCell>
        <mxCell id="y8T9JFSACITl1oGki1xc-22" style="edgeStyle=orthogonalEdgeStyle;rounded=0;orthogonalLoop=1;jettySize=auto;html=1;entryX=0.5;entryY=0;entryDx=0;entryDy=0;" edge="1" parent="1" source="y8T9JFSACITl1oGki1xc-14" target="y8T9JFSACITl1oGki1xc-21">
          <mxGeometry relative="1" as="geometry" />
        </mxCell>
        <mxCell id="y8T9JFSACITl1oGki1xc-23" value="false" style="edgeLabel;html=1;align=center;verticalAlign=middle;resizable=0;points=[];" vertex="1" connectable="0" parent="y8T9JFSACITl1oGki1xc-22">
          <mxGeometry x="-0.3176" y="2" relative="1" as="geometry">
            <mxPoint as="offset" />
          </mxGeometry>
        </mxCell>
        <mxCell id="y8T9JFSACITl1oGki1xc-14" value="l &amp;gt; u+d?" style="rhombus;whiteSpace=wrap;html=1;" vertex="1" parent="1">
          <mxGeometry x="525" y="402.5" width="116" height="70" as="geometry" />
        </mxCell>
        <mxCell id="y8T9JFSACITl1oGki1xc-26" style="edgeStyle=orthogonalEdgeStyle;rounded=0;orthogonalLoop=1;jettySize=auto;html=1;entryX=0.5;entryY=0;entryDx=0;entryDy=0;" edge="1" parent="1" source="y8T9JFSACITl1oGki1xc-18" target="y8T9JFSACITl1oGki1xc-24">
          <mxGeometry relative="1" as="geometry" />
        </mxCell>
        <mxCell id="y8T9JFSACITl1oGki1xc-18" value="Forget about the cocktails, man!" style="shape=parallelogram;perimeter=parallelogramPerimeter;whiteSpace=wrap;html=1;fixedSize=1;" vertex="1" parent="1">
          <mxGeometry x="340" y="410" width="140" height="55" as="geometry" />
        </mxCell>
        <mxCell id="y8T9JFSACITl1oGki1xc-27" style="edgeStyle=orthogonalEdgeStyle;rounded=0;orthogonalLoop=1;jettySize=auto;html=1;entryX=1;entryY=0.5;entryDx=0;entryDy=0;" edge="1" parent="1" source="y8T9JFSACITl1oGki1xc-21" target="y8T9JFSACITl1oGki1xc-24">
          <mxGeometry relative="1" as="geometry" />
        </mxCell>
        <mxCell id="y8T9JFSACITl1oGki1xc-21" value="Three times Sex on the Beach, please!" style="shape=parallelogram;perimeter=parallelogramPerimeter;whiteSpace=wrap;html=1;fixedSize=1;" vertex="1" parent="1">
          <mxGeometry x="504.5" y="510" width="157" height="55" as="geometry" />
        </mxCell>
        <mxCell id="y8T9JFSACITl1oGki1xc-24" value="&lt;font color=&quot;#ff3333&quot;&gt;End&lt;/font&gt;" style="ellipse;whiteSpace=wrap;html=1;" vertex="1" parent="1">
          <mxGeometry x="350" y="497.5" width="120" height="80" as="geometry" />
        </mxCell>
      </root>
    </mxGraphModel>
  </diagram>
</mxfile>
